<?xml version="1.0" standalone="no"?>
<!DOCTYPE svg PUBLIC "-//W3C//DTD SVG 20010904//EN"
 "http://www.w3.org/TR/2001/REC-SVG-20010904/DTD/svg10.dtd">
<svg version="1.0" xmlns="http://www.w3.org/2000/svg"
 width="736.000000pt" height="190.000000pt" viewBox="0 0 736.000000 190.000000"
 preserveAspectRatio="xMidYMid meet">
<metadata>
Created by potrace 1.16, written by Peter Selinger 2001-2019
</metadata>
<g transform="translate(0.000000,190.000000) scale(0.100000,-0.100000)"
fill="#000000" stroke="none">
<path d="M1562 1789 c-104 -20 -211 -89 -262 -169 -28 -44 -34 -48 -80 -53
-94 -11 -170 -74 -196 -163 -25 -88 2 -173 76 -237 54 -46 103 -57 253 -57
l125 0 4 -31 c8 -50 -16 -69 -98 -79 -127 -16 -237 -80 -299 -174 l-30 -46
-61 0 c-59 0 -84 11 -84 37 0 7 9 13 20 13 34 0 97 37 121 71 59 83 23 216
-68 254 -18 8 -33 19 -33 24 0 22 -64 81 -105 97 -81 30 -184 -5 -220 -77 -9
-17 -36 -49 -60 -72 -74 -72 -81 -162 -19 -237 40 -47 74 -60 159 -60 69 0 75
-2 75 -20 0 -34 37 -97 72 -121 24 -18 50 -25 99 -27 l65 -4 -4 -54 -4 -54
241 0 241 0 0 29 c0 49 29 73 97 81 34 4 82 18 109 31 52 26 116 99 134 153
l11 34 89 4 c80 4 95 7 131 34 55 38 79 85 79 151 0 45 3 53 22 59 46 14 100
59 126 103 36 61 37 155 4 218 -35 68 -123 123 -196 123 -30 0 -37 6 -60 43
-79 136 -288 213 -474 176z m458 -708 c0 -52 -29 -74 -104 -79 l-66 -4 0 56 0
56 85 0 85 0 0 -29z"/>
<path d="M6303 1551 c-34 -16 -44 -27 -52 -58 -7 -25 -11 -224 -11 -566 l0
-528 -25 -24 c-24 -25 -65 -32 -100 -19 -44 17 -45 33 -45 599 0 349 -4 543
-10 556 -12 21 -60 49 -85 49 -13 0 -15 -63 -15 -582 0 -561 1 -584 20 -615
46 -76 197 -101 298 -51 86 42 82 11 82 676 0 320 -3 582 -7 582 -5 0 -27 -9
-50 -19z"/>
<path d="M6576 1555 c-22 -8 -53 -28 -70 -45 l-31 -30 -3 -595 c-1 -327 0
-595 3 -595 3 0 21 6 39 14 65 27 66 32 66 323 l0 263 84 0 85 0 3 -270 3
-270 25 -24 c14 -14 37 -28 53 -31 l27 -7 0 595 0 594 -22 28 c-47 59 -170 83
-262 50z m133 -60 c16 -8 31 -22 35 -30 3 -9 6 -118 6 -241 l0 -224 -85 0 -85
0 0 218 c0 232 5 256 50 279 32 16 45 16 79 -2z"/>
<path d="M2721 1544 c-50 -36 -51 -43 -51 -629 0 -595 0 -594 56 -615 14 -6
67 -10 117 -10 108 0 161 19 198 71 24 34 24 37 24 276 l0 242 -29 30 -29 30
26 31 c36 42 39 66 35 292 -3 224 -7 234 -88 276 -37 18 -60 22 -140 22 -72 0
-101 -4 -119 -16z m203 -67 l26 -17 0 -221 0 -220 -25 -24 c-20 -21 -34 -25
-85 -25 l-60 0 0 266 0 266 59 -4 c32 -2 70 -12 85 -21z m5 -593 c20 -25 21
-39 21 -253 -1 -162 -4 -231 -13 -242 -21 -27 -54 -39 -106 -39 l-51 0 0 280
0 280 64 0 c58 0 67 -3 85 -26z"/>
<path d="M5250 1404 c0 -81 1 -87 29 -115 17 -17 40 -29 55 -29 26 0 26 1 26
75 0 90 -16 128 -61 144 -18 6 -36 11 -40 11 -5 0 -9 -39 -9 -86z"/>
<path d="M4888 1196 c-59 -16 -116 -59 -134 -102 -8 -19 -14 -68 -14 -113 l0
-80 33 10 c48 13 73 48 82 114 8 70 38 105 87 105 67 -1 88 -39 88 -160 0
-101 -15 -146 -53 -155 -12 -2 -48 -9 -79 -14 -74 -13 -114 -34 -138 -74 -17
-28 -20 -51 -20 -180 0 -162 6 -185 60 -230 39 -33 120 -44 198 -27 65 14 88
15 120 5 l22 -7 0 396 c0 434 1 428 -59 479 -17 14 -53 30 -81 36 -60 13 -52
13 -112 -3z m140 -627 c-3 -176 -4 -181 -27 -200 -31 -25 -95 -25 -120 0 -27
27 -33 70 -29 204 4 135 8 143 90 162 98 24 90 39 86 -166z"/>
<path d="M3324 1191 c-47 -12 -97 -46 -116 -79 -16 -27 -18 -65 -18 -381 l0
-350 30 -35 c39 -44 82 -58 176 -58 85 1 135 20 168 65 20 27 21 43 24 381 l3
352 -23 34 c-13 19 -40 43 -61 53 -42 21 -136 30 -183 18z m128 -88 l23 -25 0
-340 0 -340 -28 -24 c-51 -43 -127 -23 -142 39 -3 12 -5 167 -3 343 3 306 4
323 23 344 39 44 87 45 127 3z"/>
<path d="M3820 1188 c-19 -5 -47 -19 -62 -30 -58 -41 -58 -41 -58 -473 0 -217
2 -395 5 -395 3 0 21 6 39 14 67 28 66 23 66 404 0 374 4 402 55 422 39 15 51
13 82 -14 l28 -24 5 -371 5 -371 25 -25 c14 -13 40 -27 58 -31 l32 -6 0 389
c0 383 0 389 -22 433 -40 78 -146 110 -258 78z"/>
<path d="M4338 1181 c-42 -14 -87 -49 -104 -83 -12 -24 -15 -57 -12 -160 l3
-129 41 -39 c28 -26 55 -41 80 -45 22 -3 54 -8 73 -11 18 -3 44 -16 57 -29 23
-23 24 -31 24 -145 0 -121 -7 -152 -39 -177 -25 -20 -68 -15 -97 11 -25 21
-28 31 -34 120 -7 108 -19 130 -78 142 l-32 7 0 -122 c0 -143 10 -170 73 -203
60 -32 196 -33 247 -1 61 38 74 73 78 204 4 100 1 123 -16 162 -23 53 -72 84
-149 94 -63 8 -102 28 -113 59 -14 35 -13 204 1 243 6 17 19 36 29 41 31 17
78 11 99 -11 22 -24 41 -91 41 -148 0 -60 15 -90 55 -106 19 -8 39 -15 45 -15
8 0 11 38 8 124 -3 138 -13 162 -78 200 -36 21 -157 31 -202 17z"/>
<path d="M5250 719 c0 -241 2 -439 5 -439 3 0 21 6 39 14 67 28 66 20 66 428
0 366 0 367 -22 393 -13 14 -38 29 -55 34 l-33 10 0 -440z"/>
</g>
</svg>
